<svg id="Capa_1" enable-background="new 0 0 512 512" height="512" viewBox="0 0 512 512" width="512" xmlns="http://www.w3.org/2000/svg"><g><path d="m316 128.5c8.284 0 15-6.716 15-15 0-8.271 6.729-15 15-15s15 6.729 15 15c0 5.34-2.878 10.323-7.511 13.002-13.872 8.025-22.489 22.957-22.489 38.971 0 8.284 6.716 15 15 15s15-6.716 15-15c0-5.34 2.878-10.322 7.511-13.002 13.872-8.025 22.489-22.957 22.489-38.971 0-24.813-20.187-45-45-45s-45 20.187-45 45c0 8.284 6.716 15 15 15z"/><circle cx="346" cy="218.5" r="15"/><path d="m497 8.5h-301c-8.284 0-15 6.716-15 15v180h-166c-8.284 0-15 6.716-15 15v270c0 8.284 6.716 15 15 15s15-6.716 15-15c0-8.271 6.729-15 15-15h271c8.284 0 15-6.716 15-15v-165h136c8.271 0 15 6.729 15 15 0 8.284 6.716 15 15 15s15-6.716 15-15v-285c0-8.284-6.716-15-15-15zm-196 435h-256c-5.257 0-10.307.906-15 2.57v-212.57h151v30h-106c-8.284 0-15 6.716-15 15s6.716 15 15 15h226zm181-177.43c-4.693-1.664-9.743-2.57-15-2.57h-256v-225h271z"/><path d="m256 383.5h-181c-8.284 0-15 6.716-15 15s6.716 15 15 15h181c8.284 0 15-6.716 15-15s-6.716-15-15-15z"/><path d="m60 338.5c0 8.284 6.716 15 15 15h181c8.284 0 15-6.716 15-15s-6.716-15-15-15h-181c-8.284 0-15 6.716-15 15z"/></g></svg>