<svg height="512" viewBox="0 0 512 512" width="512" xmlns="http://www.w3.org/2000/svg"><g><path d="m476 56h-440a28.031 28.031 0 0 0 -28 28v344a28.031 28.031 0 0 0 28 28h440a28.031 28.031 0 0 0 28-28v-344a28.031 28.031 0 0 0 -28-28zm12 372a12.01 12.01 0 0 1 -12 12h-440a12.01 12.01 0 0 1 -12-12v-308h464zm0-324h-464v-20a12.01 12.01 0 0 1 12-12h440a12.01 12.01 0 0 1 12 12z"/><path d="m40 96h8a8 8 0 0 0 0-16h-8a8 8 0 0 0 0 16z"/><path d="m72 96h8a8 8 0 0 0 0-16h-8a8 8 0 0 0 0 16z"/><path d="m104 96h8a8 8 0 0 0 0-16h-8a8 8 0 0 0 0 16z"/><path d="m274.53 216.411a8 8 0 0 0 -10.12 5.059l-32 96a8 8 0 1 0 15.18 5.06l32-96a8 8 0 0 0 -5.06-10.119z"/><path d="m310.656 219.562a8 8 0 1 0 -13.312 8.876l29.041 43.562-29.041 43.562a8 8 0 1 0 13.312 8.876l32-48a8 8 0 0 0 0-8.876z"/><path d="m212.438 217.344a8 8 0 0 0 -11.094 2.218l-32 48a8 8 0 0 0 0 8.876l32 48a8 8 0 0 0 13.312-8.876l-29.041-43.562 29.041-43.562a8 8 0 0 0 -2.218-11.094z"/></g></svg>